<svg xmlns="http://www.w3.org/2000/svg" xmlns:xlink="http://www.w3.org/1999/xlink" version="1.1" id="Layer_1" x="0px" y="0px" width="50px" height="50px" viewBox="0 0 50 50" enable-background="new 0 0 50 50" xml:space="preserve">
<g>
	<path fill="rgb(65, 117, 5)" d="M34.084,38.923c0.575,0,1.149,0.291,1.436,0.291c0.285,0,0.86,0,1.145,0c1.721,0,3.154-0.861,4.3-2.58   c1.148-1.721,1.723-3.727,1.723-6.307c0-3.152-0.574-5.446-1.723-7.454c-1.43-2.005-2.867-2.867-4.872-2.867   c-0.572,0-0.858,0-1.146,0c-0.574,0-0.861,0.289-1.719,0.289l0.285,4.299c0.288-0.574,0.859-1.147,1.434-1.434   c0.288-0.287,0.859-0.575,1.435-0.575c1.145,0,2.005,0.575,2.578,1.722c0.86,1.432,1.148,3.155,1.148,5.159   c0,2.008-0.288,3.729-1.148,5.16c-0.573,1.146-1.721,1.719-2.866,1.719c-0.287,0-0.858,0-1.146-0.283   c-0.574,0-1.146-0.289-1.719-0.861L34.084,38.923z"/>
	<g>
		<path fill-rule="evenodd" clip-rule="evenodd" fill="rgb(65, 117, 5)" d="M7.996,17.427C7.712,24.02,5.133,43.517,12.3,46.954    c5.445,0.287,12.326,0,17.771,0.287c8.313-2.582,5.448-22.36,5.448-29.243c-2.867,2.008-5.735,2.297-7.742-0.571    c-2.867,1.433-5.731,1.433-8.31,0.859c-2.871,1.146-5.449,0.573-7.455-1.434C9.718,14.847,7.996,17.716,7.996,17.427z"/>
		<g>
			<path fill-rule="evenodd" clip-rule="evenodd" fill="#000000" d="M17.618,4.751c0.532-1.064,2.396-1.224,3.736-0.701     c0.212,0.082,1.261,0.529,1.068,1.197c-0.119,0.477-0.219,1.128,0.23,1.481c0.539,0.424,1.32,0.017,2.146-0.416     c0.305-0.159,0.813-0.425,0.972-0.427l0.405-0.005c0.006,0,0.085-0.397,0.085-0.397c0.283-1.412,2.039-1.498,3.461-1.323     c0.8,0.116,1.4,0.444,1.727,0.948c0.346,0.534,0.397,1.277,0.149,2.147l-0.146,0.509l0.518,0.116     c2.306,0.513,3.334,1.688,3.334,3.812v0.118l0.053,0.104l0.279,0.56l0.579,1.161l0.096-0.575     c-0.591,0.588-1.201,1.199-1.525,1.85l0.038-0.064c-0.754,1.077-1.562,1.646-2.399,1.695c-1.018,0.059-2.165-0.623-3.412-2.026     l-0.316-0.354l-0.37,0.296c-1.574,1.261-2.695,1.414-3.999,0.548l-0.294-0.196l-0.282,0.212     c-1.138,0.851-2.056,0.926-3.168,0.257l-0.288-0.174l-0.27,0.202c-2.036,1.527-4.02,1.077-5.897-1.339l-0.2-0.258l-0.316,0.079     c-2.175,0.544-3.627,0.515-4.317-0.09c-0.467-0.408-0.633-1.14-0.51-2.234l-0.141,0.294l0.035-0.035     c0.312-0.315,0.892-0.903,1.202-1.523l0.14-0.278L9.834,9.673C9.411,9.112,9.15,8.662,9.253,8.292     c0.083-0.295,0.462-0.76,1.797-1.294l0.156-0.063l0.086-0.145c0.847-1.41,1.577-2.627,3.015-2.627l-0.099-0.01     c0.589,0.119,1.076,0.348,1.506,0.548c0.617,0.288,1.149,0.537,1.681,0.272l0.149-0.074L17.618,4.751z M14.307,3.165     c-2.004,0-2.995,1.652-3.871,3.11l0.242-0.205C9.263,6.636,8.504,7.257,8.29,8.023c-0.226,0.809,0.225,1.56,0.745,2.251     L8.987,9.75c-0.24,0.479-0.748,0.994-1.021,1.271l-0.036,0.037L7.81,11.179l-0.02,0.172c-0.162,1.445,0.113,2.459,0.846,3.099     c0.964,0.845,2.672,0.945,5.219,0.308l-0.517-0.178c2.214,2.849,4.802,3.391,7.288,1.525l-0.558,0.029     c1.92,1.154,3.363,0.374,4.282-0.313l-0.577,0.016c2.145,1.427,3.894,0.43,5.178-0.6l-0.686-0.058     c1.46,1.644,2.879,2.438,4.217,2.36c1.159-0.066,2.223-0.78,3.161-2.12l0.021-0.029l0.017-0.033     c0.251-0.505,0.803-1.055,1.336-1.588l0.255-0.255c0.001,0.002-0.16-0.32-0.16-0.32l-0.581-1.166l-0.279-0.559l0.053,0.224     c0-2.568-1.385-4.18-4.116-4.788l0.372,0.625c0.329-1.155,0.235-2.181-0.272-2.965c-0.487-0.753-1.329-1.235-2.433-1.395     c-3.524-0.437-4.378,1.14-4.574,2.117l0.49-0.401c-0.399,0-0.88,0.25-1.435,0.541c-0.334,0.174-0.954,0.498-1.142,0.479     c0.048,0.005,0.119,0.063,0.133,0.108c-0.001-0.004-0.035-0.123,0.061-0.508c0.275-0.957-0.363-1.879-1.671-2.389     c-1.772-0.691-4.185-0.434-4.994,1.186l0.224-0.224c-0.098,0.049-0.526-0.151-0.811-0.284c-0.456-0.214-1.024-0.479-1.731-0.622     l-0.048-0.01H14.307z"/>
		</g>
	</g>
</g>
</svg>